<?xml version="1.0" encoding="UTF-8"?> <svg xmlns="http://www.w3.org/2000/svg" width="1785" height="671" viewBox="0 0 1785 671" fill="none"> <path d="M1 116.31C251.351 194.221 386.3 296.976 464.129 381.037C529.007 451.119 527.856 479.787 596.748 532.074C746.249 645.534 1032.64 723.776 1171.43 626.272C1239.81 578.241 1214.51 517.374 1247.22 402.148C1276.64 298.494 1352.71 155.934 1565.08 1" stroke="url(#paint0_linear_9_5103)" stroke-miterlimit="10"></path> <path d="M1.50079 141.446C245.009 208.405 378.608 305.072 456.396 383.743C521.848 449.956 527.17 476.433 600.345 527.821C753.85 635.623 1022.8 710.674 1161.8 619.697C1233.39 572.84 1217.11 513.014 1255.42 398.125C1289.16 296.979 1366.78 156.856 1575.5 3.31226" stroke="url(#paint1_linear_9_5103)" stroke-miterlimit="10"></path> <path d="M2.00153 166.58C238.662 222.589 371.015 313.194 448.677 386.449C514.838 448.855 526.366 473.083 603.956 523.569C761.126 625.837 1013.4 697.748 1152.18 613.126C1227.15 567.407 1219.59 508.713 1263.65 394.107C1301.57 295.492 1380.87 157.79 1585.94 5.64233" stroke="url(#paint2_linear_9_5103)" stroke-miterlimit="10"></path> <path d="M2.50226 191.717C232.315 236.777 363.553 321.34 440.958 389.176C507.913 447.821 525.431 469.757 607.585 519.314C768.109 616.19 1004.4 685.015 1142.58 606.551C1221.08 561.975 1221.97 504.461 1271.89 390.084C1313.81 294.026 1394.98 158.723 1596.37 7.96167" stroke="url(#paint3_linear_9_5103)" stroke-miterlimit="10"></path> <path d="M3.00482 216.85C225.993 250.955 356.247 329.485 433.241 391.864C501.107 446.843 524.422 466.463 611.17 515.062C774.769 606.687 995.734 672.492 1132.93 599.976C1215.13 556.532 1224.17 500.237 1280.08 386.062C1325.87 292.567 1409.05 159.653 1606.77 10.2986" stroke="url(#paint4_linear_9_5103)" stroke-miterlimit="10"></path> <path d="M3.50555 241.983C219.628 265.139 349.105 337.634 425.521 394.57C494.445 445.923 523.248 463.217 614.781 510.806C781.205 597.34 987.419 660.182 1123.31 593.404C1209.35 551.12 1226.22 496.033 1288.3 382.04C1337.81 291.104 1423.14 160.586 1617.2 12.6003" stroke="url(#paint5_linear_9_5103)" stroke-miterlimit="10"></path> <path d="M4.00635 267.117C213.281 279.305 342.163 345.748 417.802 397.276C487.935 445.052 521.997 460.027 618.388 506.554C787.434 588.146 979.402 648.094 1113.68 586.829C1203.7 545.756 1228.18 491.83 1296.52 378.021C1349.6 289.628 1437.25 161.52 1627.62 14.9231" stroke="url(#paint6_linear_9_5103)" stroke-miterlimit="10"></path> <path d="M4.52472 292.254C206.952 293.504 335.454 353.825 410.101 399.982C481.624 444.21 520.692 456.907 622.012 502.302C793.496 579.109 971.674 636.226 1104.08 580.254C1198.22 540.46 1229.98 487.62 1304.76 373.999C1361.25 288.134 1451.31 162.464 1638.05 17.2427" stroke="url(#paint7_linear_9_5103)" stroke-miterlimit="10"></path> <path d="M5.00787 317.387C200.587 307.688 328.945 361.824 402.364 402.691C475.49 443.381 519.239 453.884 625.605 498.046C799.391 570.225 964.149 624.58 1094.43 573.683C1192.84 535.25 1231.6 483.374 1312.96 369.976C1372.78 286.608 1465.4 163.383 1648.5 19.5618" stroke="url(#paint8_linear_9_5103)" stroke-miterlimit="10"></path> <path d="M5.50861 342.51C194.245 321.862 322.693 369.708 394.645 405.387C469.545 442.524 517.749 450.896 629.211 493.783C805.155 561.477 956.814 613.136 1084.81 567.097C1187.57 530.137 1233.09 479.077 1321.18 365.944C1384.19 285.034 1479.49 164.306 1658.9 21.8708" stroke="url(#paint9_linear_9_5103)" stroke-miterlimit="10"></path> <path d="M6.01117 367.657C187.922 336.057 316.687 377.481 386.932 408.103C463.841 441.633 516.207 448.037 632.824 489.538C810.844 552.892 949.652 601.926 1075.19 560.536C1182.43 525.178 1234.43 474.741 1329.4 361.932C1395.48 283.439 1493.58 165.249 1669.32 24.2075" stroke="url(#paint10_linear_9_5103)" stroke-miterlimit="10"></path> <path d="M6.5119 392.79C181.553 350.237 310.908 385.077 379.213 410.809C458.351 440.626 514.631 445.265 636.43 485.286C816.464 544.433 942.619 590.904 1065.56 553.961C1177.38 520.365 1235.64 470.325 1337.62 357.913C1406.69 281.785 1507.67 166.179 1679.75 26.5234" stroke="url(#paint11_linear_9_5103)" stroke-miterlimit="10"></path> <path d="M7.0127 417.927C175.206 364.422 305.329 392.477 371.494 413.518C453.07 439.46 512.979 442.587 640.041 481.034C822.038 536.103 935.676 580.077 1055.95 547.386C1172.4 515.73 1236.71 465.829 1345.84 353.891C1417.8 280.079 1521.76 167.113 1690.17 28.8428" stroke="url(#paint12_linear_9_5103)" stroke-miterlimit="10"></path> <path d="M7.51343 443.061C168.864 378.606 299.917 399.661 363.775 416.224C447.973 438.063 511.317 440.01 643.638 476.778C827.572 527.888 928.788 569.413 1046.31 540.815C1167.52 511.301 1237.65 461.236 1354.05 349.868C1428.85 278.313 1535.85 168.036 1700.6 31.1726" stroke="url(#paint13_linear_9_5103)" stroke-miterlimit="10"></path> <path d="M8.01422 468.194C162.517 392.787 294.612 406.613 356.038 418.93C442.994 436.364 509.62 437.53 647.24 472.526C833.101 519.787 921.926 558.955 1036.68 534.24C1162.69 507.101 1238.48 456.541 1362.26 345.836C1439.82 276.478 1549.92 168.966 1711.01 33.4712" stroke="url(#paint14_linear_9_5103)" stroke-miterlimit="10"></path> <path d="M8.51501 493.331C156.193 406.971 289.353 413.327 348.337 421.636C438.119 434.285 507.945 435.152 650.865 468.271C838.644 511.802 915.092 548.644 1027.07 527.668C1157.91 503.155 1239.23 451.75 1370.5 341.827C1450.79 274.601 1564.03 169.909 1721.45 35.8044" stroke="url(#paint15_linear_9_5103)" stroke-miterlimit="10"></path> <path d="M9.0387 518.464C149.846 421.156 284.704 432.404 340.641 424.346C432.133 411.161 506.275 432.874 654.498 464.018C844.219 503.89 908.213 538.485 1017.45 521.093C1153.13 499.502 1239.87 446.815 1378.72 337.805C1461.69 272.661 1578.12 170.843 1731.87 38.1377" stroke="url(#paint16_linear_9_5103)" stroke-miterlimit="10"></path> <path d="M9.51825 543.598C143.483 435.34 279.948 436.479 332.9 427.052C425.711 410.531 504.56 430.691 658.084 459.766C849.813 496.089 901.253 528.476 1007.83 514.519C1148.35 496.138 1240.44 441.776 1386.94 333.776C1472.58 270.648 1592.2 171.766 1742.3 40.4363" stroke="url(#paint17_linear_9_5103)" stroke-miterlimit="10"></path> <path d="M10.019 568.734C137.136 449.521 274.567 440.153 325.181 429.757C419.662 410.356 502.876 428.605 661.694 455.528C855.437 488.354 894.207 518.582 998.203 507.964C1143.52 493.125 1240.95 436.628 1395.16 329.778C1483.45 268.607 1606.3 172.716 1752.72 42.7798" stroke="url(#paint18_linear_9_5103)" stroke-miterlimit="10"></path> <path d="M10.5198 593.867C130.789 463.705 266.933 438.199 317.467 432.463C417.003 421.19 501.22 426.606 665.305 451.269C861.119 480.686 887.038 508.789 988.584 501.382C1138.62 490.426 1241.4 431.314 1403.39 325.738C1494.33 266.465 1620.39 173.639 1763.15 45.0818" stroke="url(#paint19_linear_9_5103)" stroke-miterlimit="10"></path> <path d="M11.0206 619.001C124.442 477.889 260.641 444.112 309.743 435.172C410.697 416.795 499.572 424.697 668.907 447.013C866.838 473.087 879.707 499.104 978.955 494.807C1133.61 488.114 1241.81 425.923 1411.6 321.726C1505.19 264.289 1634.47 174.579 1773.57 47.4114" stroke="url(#paint20_linear_9_5103)" stroke-miterlimit="10"></path> <path d="M11.5214 644.138C118.1 492.074 253.919 450.033 302.024 437.879C403.813 412.15 497.955 422.872 672.518 442.754C872.625 465.544 872.205 489.497 969.336 488.229C1128.45 486.139 1242.2 420.386 1419.83 317.7C1516.08 262.064 1648.56 175.502 1784 49.7241" stroke="url(#paint21_linear_9_5103)" stroke-miterlimit="10"></path> <defs> <linearGradient id="paint0_linear_9_5103" x1="1685.01" y1="286.993" x2="227.163" y2="404.454" gradientUnits="userSpaceOnUse"> <stop stop-color="#F8D849"></stop> <stop offset="1" stop-color="#7D24FE"></stop> </linearGradient> <linearGradient id="paint1_linear_9_5103" x1="1696.18" y1="284.013" x2="229.583" y2="405.17" gradientUnits="userSpaceOnUse"> <stop stop-color="#F8D849"></stop> <stop offset="1" stop-color="#7D24FE"></stop> </linearGradient> <linearGradient id="paint2_linear_9_5103" x1="1707.39" y1="281.093" x2="232.041" y2="406.08" gradientUnits="userSpaceOnUse"> <stop stop-color="#F8D849"></stop> <stop offset="1" stop-color="#7D24FE"></stop> </linearGradient> <linearGradient id="paint3_linear_9_5103" x1="1718.58" y1="278.222" x2="234.531" y2="407.164" gradientUnits="userSpaceOnUse"> <stop stop-color="#F8D849"></stop> <stop offset="1" stop-color="#7D24FE"></stop> </linearGradient> <linearGradient id="paint4_linear_9_5103" x1="1729.74" y1="275.42" x2="237.057" y2="408.447" gradientUnits="userSpaceOnUse"> <stop stop-color="#F8D849"></stop> <stop offset="1" stop-color="#7D24FE"></stop> </linearGradient> <linearGradient id="paint5_linear_9_5103" x1="1740.92" y1="272.659" x2="239.625" y2="409.903" gradientUnits="userSpaceOnUse"> <stop stop-color="#F8D849"></stop> <stop offset="1" stop-color="#7D24FE"></stop> </linearGradient> <linearGradient id="paint6_linear_9_5103" x1="1752.11" y1="269.973" x2="242.234" y2="411.577" gradientUnits="userSpaceOnUse"> <stop stop-color="#F8D849"></stop> <stop offset="1" stop-color="#7D24FE"></stop> </linearGradient> <linearGradient id="paint7_linear_9_5103" x1="1763.29" y1="267.347" x2="244.903" y2="413.452" gradientUnits="userSpaceOnUse"> <stop stop-color="#F8D849"></stop> <stop offset="1" stop-color="#7D24FE"></stop> </linearGradient> <linearGradient id="paint8_linear_9_5103" x1="1774.51" y1="264.784" x2="247.595" y2="415.548" gradientUnits="userSpaceOnUse"> <stop stop-color="#F8D849"></stop> <stop offset="1" stop-color="#7D24FE"></stop> </linearGradient> <linearGradient id="paint9_linear_9_5103" x1="1785.67" y1="262.272" x2="250.344" y2="417.838" gradientUnits="userSpaceOnUse"> <stop stop-color="#F8D849"></stop> <stop offset="1" stop-color="#7D24FE"></stop> </linearGradient> <linearGradient id="paint10_linear_9_5103" x1="1796.86" y1="259.846" x2="253.153" y2="420.38" gradientUnits="userSpaceOnUse"> <stop stop-color="#F8D849"></stop> <stop offset="1" stop-color="#7D24FE"></stop> </linearGradient> <linearGradient id="paint11_linear_9_5103" x1="1808.04" y1="257.461" x2="256.018" y2="423.128" gradientUnits="userSpaceOnUse"> <stop stop-color="#F8D849"></stop> <stop offset="1" stop-color="#7D24FE"></stop> </linearGradient> <linearGradient id="paint12_linear_9_5103" x1="1819.23" y1="255.137" x2="258.945" y2="426.112" gradientUnits="userSpaceOnUse"> <stop stop-color="#F8D849"></stop> <stop offset="1" stop-color="#7D24FE"></stop> </linearGradient> <linearGradient id="paint13_linear_9_5103" x1="1830.41" y1="252.872" x2="261.94" y2="429.34" gradientUnits="userSpaceOnUse"> <stop stop-color="#F8D849"></stop> <stop offset="1" stop-color="#7D24FE"></stop> </linearGradient> <linearGradient id="paint14_linear_9_5103" x1="1841.58" y1="250.652" x2="264.999" y2="432.783" gradientUnits="userSpaceOnUse"> <stop stop-color="#F8D849"></stop> <stop offset="1" stop-color="#7D24FE"></stop> </linearGradient> <linearGradient id="paint15_linear_9_5103" x1="1852.78" y1="248.505" x2="268.143" y2="436.514" gradientUnits="userSpaceOnUse"> <stop stop-color="#F8D849"></stop> <stop offset="1" stop-color="#7D24FE"></stop> </linearGradient> <linearGradient id="paint16_linear_9_5103" x1="1863.97" y1="246.416" x2="271.384" y2="440.495" gradientUnits="userSpaceOnUse"> <stop stop-color="#F8D849"></stop> <stop offset="1" stop-color="#7D24FE"></stop> </linearGradient> <linearGradient id="paint17_linear_9_5103" x1="1875.15" y1="255.376" x2="272.201" y2="445.757" gradientUnits="userSpaceOnUse"> <stop stop-color="#F8D849"></stop> <stop offset="1" stop-color="#7D24FE"></stop> </linearGradient> <linearGradient id="paint18_linear_9_5103" x1="1886.34" y1="267.456" x2="272.539" y2="451.87" gradientUnits="userSpaceOnUse"> <stop stop-color="#F8D849"></stop> <stop offset="1" stop-color="#7D24FE"></stop> </linearGradient> <linearGradient id="paint19_linear_9_5103" x1="1897.53" y1="279.511" x2="273.049" y2="458.436" gradientUnits="userSpaceOnUse"> <stop stop-color="#F8D849"></stop> <stop offset="1" stop-color="#7D24FE"></stop> </linearGradient> <linearGradient id="paint20_linear_9_5103" x1="1908.71" y1="291.582" x2="273.709" y2="465.46" gradientUnits="userSpaceOnUse"> <stop stop-color="#F8D849"></stop> <stop offset="1" stop-color="#7D24FE"></stop> </linearGradient> <linearGradient id="paint21_linear_9_5103" x1="1919.9" y1="303.645" x2="274.495" y2="472.857" gradientUnits="userSpaceOnUse"> <stop stop-color="#F8D849"></stop> <stop offset="1" stop-color="#7D24FE"></stop> </linearGradient> </defs> </svg> 