<?xml version="1.0" encoding="iso-8859-1"?>
<!-- Uploaded to: SVG Repo, www.svgrepo.com, Generator: SVG Repo Mixer Tools -->
<!DOCTYPE svg PUBLIC "-//W3C//DTD SVG 1.1//EN" "http://www.w3.org/Graphics/SVG/1.1/DTD/svg11.dtd">
<svg fill="#000000" version="1.1" id="Capa_1" xmlns="http://www.w3.org/2000/svg" xmlns:xlink="http://www.w3.org/1999/xlink" 
	 width="800px" height="800px" viewBox="0 0 392.187 392.186"
	 xml:space="preserve">
<g>
	<g>
		<g>
			<path d="M368.621,17.952H23.568C10.573,17.952,0,28.525,0,41.521v309.146c0,12.996,10.573,23.568,23.568,23.568h345.055
				c12.992,0,23.563-10.572,23.563-23.568V41.521C392.188,28.526,381.615,17.952,368.621,17.952z M297.561,57.529
				c0-4.806,3.896-8.703,8.701-8.703h8.703c4.808,0,8.701,3.896,8.701,8.703v9.863c0,4.806-3.896,8.702-8.701,8.702h-8.703
				c-4.805,0-8.701-3.896-8.701-8.702V57.529z M257.094,57.529c0-4.806,3.898-8.703,8.703-8.703h8.701
				c4.807,0,8.703,3.896,8.703,8.703v9.863c0,4.806-3.896,8.702-8.703,8.702h-8.701c-4.805,0-8.703-3.896-8.703-8.702V57.529z
				 M363.904,345.952H28.282V102.236h335.622V345.952L363.904,345.952z M364.133,67.392c0,4.806-3.896,8.702-8.701,8.702h-8.703
				c-4.807,0-8.702-3.896-8.702-8.702v-9.863c0-4.806,3.896-8.703,8.702-8.703h8.703c4.806,0,8.701,3.896,8.701,8.703V67.392z"/>
			<path d="M79.362,226.689L76.26,244.77c-0.457,2.669,0.621,5.313,2.808,6.901c1.213,0.881,2.647,1.349,4.147,1.349
				c1.141,0,2.276-0.281,3.284-0.813l16.237-8.537l16.234,8.535c2.335,1.23,5.299,1.019,7.434-0.533
				c2.188-1.59,3.266-4.232,2.81-6.903l-3.101-18.08l13.136-12.808c1.937-1.889,2.62-4.659,1.784-7.229
				c-0.822-2.536-3.059-4.422-5.697-4.805l-18.154-2.64l-8.117-16.448c-1.195-2.428-3.62-3.936-6.328-3.936
				c-2.704,0-5.129,1.507-6.329,3.934l-8.117,16.449l-18.153,2.638c-2.678,0.391-4.861,2.229-5.696,4.804
				c-0.838,2.574-0.153,5.345,1.784,7.231L79.362,226.689z"/>
			<path d="M172.718,226.689l-3.102,18.083c-0.454,2.669,0.622,5.312,2.81,6.899c1.214,0.881,2.647,1.349,4.146,1.349
				c1.14,0,2.275-0.281,3.283-0.813l16.239-8.537l16.237,8.536c2.343,1.231,5.306,1.011,7.431-0.534
				c2.188-1.588,3.266-4.231,2.811-6.903l-3.102-18.08l13.133-12.806c1.938-1.885,2.623-4.655,1.789-7.234
				c-0.838-2.573-3.021-4.413-5.697-4.802l-18.156-2.64l-8.116-16.447c-1.177-2.392-3.66-3.937-6.327-3.937
				c-2.667,0-5.15,1.545-6.326,3.934l-8.118,16.45l-18.154,2.637c-2.677,0.391-4.861,2.229-5.701,4.808
				c-0.832,2.574-0.146,5.346,1.788,7.229L172.718,226.689z"/>
			<path d="M266.074,226.689l-3.103,18.081c-0.455,2.669,0.621,5.313,2.81,6.901c1.215,0.881,2.647,1.349,4.147,1.349
				c1.14,0,2.275-0.281,3.283-0.813l16.236-8.537l16.235,8.536c2.332,1.229,5.298,1.018,7.437-0.534
				c2.188-1.591,3.264-4.233,2.807-6.903l-3.102-18.079l13.135-12.807c1.938-1.889,2.623-4.659,1.787-7.23
				c-0.836-2.574-3.021-4.415-5.697-4.804l-18.153-2.64l-8.119-16.45c-1.197-2.426-3.623-3.934-6.326-3.934
				c-2.707,0-5.133,1.508-6.328,3.934l-8.117,16.45l-18.154,2.638c-2.639,0.383-4.875,2.27-5.696,4.804
				c-0.836,2.571-0.15,5.343,1.783,7.23L266.074,226.689z"/>
		</g>
	</g>
</g>
</svg>