<?xml version="1.0" encoding="UTF-8"?>
<svg xmlns="http://www.w3.org/2000/svg" xmlns:xlink="http://www.w3.org/1999/xlink" width="48px" height="48px" viewBox="0 0 48 48" version="1.1">
<g id="surface1">
<path style=" stroke:none;fill-rule:nonzero;fill:rgb(81.176471%,39.215686%,60.392157%);fill-opacity:1;" d="M 39.5625 26.417969 C 38.054688 26.425781 36.746094 26.789062 35.65625 27.328125 C 35.257812 26.527344 34.847656 25.824219 34.78125 25.300781 C 34.699219 24.6875 34.613281 24.324219 34.707031 23.59375 C 34.800781 22.867188 35.226562 21.835938 35.21875 21.761719 C 35.210938 21.6875 35.125 21.320312 34.253906 21.3125 C 33.386719 21.304688 32.636719 21.480469 32.550781 21.710938 C 32.464844 21.9375 32.292969 22.457031 32.195312 22.996094 C 32.039062 23.785156 30.457031 26.601562 29.558594 28.070312 C 29.261719 27.496094 29.015625 26.992188 28.960938 26.585938 C 28.878906 25.972656 28.792969 25.609375 28.886719 24.882812 C 28.980469 24.15625 29.40625 23.125 29.398438 23.050781 C 29.390625 22.976562 29.304688 22.605469 28.433594 22.597656 C 27.566406 22.589844 26.816406 22.765625 26.730469 22.996094 C 26.644531 23.226562 26.546875 23.765625 26.375 24.28125 C 26.199219 24.800781 24.089844 29.488281 23.539062 30.710938 C 23.253906 31.328125 23.011719 31.828125 22.835938 32.164062 C 22.808594 32.21875 22.789062 32.25 22.777344 32.277344 C 22.796875 32.246094 22.808594 32.210938 22.808594 32.226562 C 22.660156 32.515625 22.574219 32.675781 22.574219 32.675781 L 22.574219 32.683594 C 22.460938 32.898438 22.332031 33.09375 22.269531 33.09375 C 22.230469 33.09375 22.144531 32.527344 22.292969 31.753906 C 22.609375 30.121094 23.355469 27.589844 23.347656 27.503906 C 23.34375 27.457031 23.488281 27.019531 22.855469 26.78125 C 22.242188 26.558594 22.023438 26.929688 21.96875 26.929688 C 21.914062 26.929688 21.875 27.066406 21.875 27.066406 C 21.875 27.066406 22.554688 24.207031 20.566406 24.207031 C 19.328125 24.207031 17.601562 25.570312 16.753906 26.800781 C 16.222656 27.09375 15.070312 27.71875 13.855469 28.386719 C 13.390625 28.640625 12.914062 28.902344 12.464844 29.152344 C 12.429688 29.121094 12.402344 29.085938 12.367188 29.050781 C 9.957031 26.480469 5.503906 24.660156 5.691406 21.203125 C 5.761719 19.945312 6.199219 16.636719 14.253906 12.621094 C 20.855469 9.335938 26.136719 10.238281 27.046875 12.246094 C 28.355469 15.109375 24.226562 20.4375 17.367188 21.203125 C 14.753906 21.492188 13.378906 20.484375 13.035156 20.105469 C 12.679688 19.707031 12.625 19.6875 12.488281 19.761719 C 12.265625 19.882812 12.410156 20.234375 12.488281 20.441406 C 12.691406 20.976562 13.535156 21.917969 14.96875 22.390625 C 16.226562 22.800781 19.292969 23.03125 23 21.59375 C 27.160156 19.992188 30.402344 15.523438 29.453125 11.785156 C 28.480469 7.988281 22.183594 6.742188 16.222656 8.855469 C 12.671875 10.117188 8.832031 12.097656 6.070312 14.675781 C 2.789062 17.75 2.265625 20.421875 2.480469 21.542969 C 3.246094 25.507812 8.71875 28.09375 10.90625 30.007812 C 10.800781 30.070312 10.699219 30.125 10.605469 30.175781 C 9.503906 30.722656 5.335938 32.90625 4.292969 35.210938 C 3.113281 37.824219 4.488281 39.695312 5.390625 39.953125 C 8.207031 40.734375 11.089844 39.324219 12.636719 37.015625 C 14.1875 34.703125 14 31.6875 13.285156 30.3125 C 13.277344 30.292969 13.265625 30.277344 13.257812 30.257812 C 13.539062 30.089844 13.832031 29.921875 14.121094 29.753906 C 14.679688 29.421875 15.226562 29.121094 15.703125 28.855469 C 15.433594 29.585938 15.238281 30.460938 15.136719 31.726562 C 15.015625 33.207031 15.628906 35.128906 16.425781 35.882812 C 16.773438 36.210938 17.199219 36.21875 17.460938 36.21875 C 18.390625 36.21875 18.808594 35.453125 19.273438 34.535156 C 19.847656 33.417969 20.351562 32.117188 20.351562 32.117188 C 20.351562 32.117188 19.71875 35.632812 21.449219 35.632812 C 22.082031 35.632812 22.714844 34.820312 23 34.402344 L 23 34.40625 C 23 34.40625 23.011719 34.378906 23.046875 34.328125 C 23.113281 34.226562 23.148438 34.164062 23.148438 34.164062 L 23.148438 34.144531 C 23.402344 33.707031 23.960938 32.703125 24.804688 31.046875 C 25.894531 28.902344 26.9375 26.230469 26.9375 26.230469 C 26.9375 26.230469 27.035156 26.882812 27.355469 27.96875 C 27.546875 28.605469 27.941406 29.308594 28.257812 29.988281 C 28.003906 30.339844 27.847656 30.539062 27.847656 30.539062 C 27.847656 30.539062 27.847656 30.546875 27.855469 30.554688 C 27.652344 30.824219 27.425781 31.113281 27.1875 31.394531 C 26.324219 32.421875 25.300781 33.59375 25.167969 33.929688 C 25.003906 34.328125 25.046875 34.621094 25.355469 34.851562 C 25.585938 35.027344 25.988281 35.054688 26.414062 35.019531 C 27.1875 34.964844 27.734375 34.777344 27.996094 34.65625 C 28.414062 34.507812 28.898438 34.273438 29.359375 33.941406 C 30.199219 33.324219 30.710938 32.433594 30.664062 31.261719 C 30.636719 30.613281 30.429688 29.96875 30.171875 29.363281 C 30.246094 29.253906 30.328125 29.140625 30.402344 29.023438 C 31.734375 27.078125 32.765625 24.941406 32.765625 24.941406 C 32.765625 24.941406 32.859375 25.597656 33.183594 26.679688 C 33.34375 27.226562 33.660156 27.824219 33.953125 28.410156 C 32.699219 29.429688 31.925781 30.609375 31.65625 31.382812 C 31.15625 32.816406 31.546875 33.464844 32.28125 33.613281 C 32.609375 33.679688 33.082031 33.523438 33.433594 33.375 C 33.871094 33.230469 34.394531 32.992188 34.886719 32.628906 C 35.730469 32.007812 36.546875 31.140625 36.492188 29.960938 C 36.472656 29.429688 36.324219 28.898438 36.128906 28.386719 C 37.183594 27.941406 38.558594 27.699219 40.3125 27.898438 C 44.0625 28.339844 44.796875 30.683594 44.65625 31.660156 C 44.515625 32.640625 43.726562 33.179688 43.464844 33.34375 C 43.199219 33.503906 43.121094 33.566406 43.140625 33.6875 C 43.175781 33.863281 43.296875 33.855469 43.515625 33.816406 C 43.828125 33.761719 45.484375 33.019531 45.558594 31.207031 C 45.667969 28.917969 43.464844 26.398438 39.5625 26.417969 Z M 10.644531 36.164062 C 9.40625 37.519531 7.667969 38.03125 6.917969 37.601562 C 6.117188 37.136719 6.433594 35.140625 7.964844 33.699219 C 8.894531 32.824219 10.09375 32.015625 10.886719 31.519531 C 11.070312 31.410156 11.332031 31.25 11.65625 31.054688 C 11.707031 31.019531 11.734375 31.003906 11.734375 31.003906 C 11.796875 30.964844 11.863281 30.929688 11.929688 30.890625 C 12.488281 32.9375 11.949219 34.746094 10.644531 36.164062 Z M 19.699219 30.007812 C 19.265625 31.066406 18.355469 33.761719 17.804688 33.621094 C 17.332031 33.496094 17.042969 31.445312 17.710938 29.421875 C 18.046875 28.40625 18.761719 27.191406 19.1875 26.722656 C 19.867188 25.960938 20.613281 25.71875 20.789062 26.019531 C 21.023438 26.417969 19.96875 29.347656 19.699219 30.007812 Z M 27.175781 33.578125 C 26.992188 33.671875 26.824219 33.734375 26.742188 33.6875 C 26.683594 33.652344 26.816406 33.523438 26.816406 33.523438 C 26.816406 33.523438 27.753906 32.519531 28.125 32.0625 C 28.339844 31.792969 28.589844 31.476562 28.859375 31.125 C 28.859375 31.160156 28.867188 31.195312 28.867188 31.234375 C 28.859375 32.441406 27.699219 33.253906 27.175781 33.578125 Z M 32.941406 32.265625 C 32.808594 32.171875 32.828125 31.855469 33.277344 30.871094 C 33.453125 30.488281 33.859375 29.839844 34.558594 29.21875 C 34.640625 29.476562 34.6875 29.71875 34.6875 29.949219 C 34.679688 31.464844 33.59375 32.03125 32.941406 32.265625 Z M 32.941406 32.265625 "/>
</g>
</svg>
